
<svg version="1.0" xmlns="http://www.w3.org/2000/svg"
 width="300.000000pt" height="300.000000pt" viewBox="0 0 300.000000 300.000000"
 preserveAspectRatio="xMidYMid meet">
<g transform="translate(0.000000,300.000000) scale(0.100000,-0.100000)"
fill="#000000" stroke="none">
<path d="M1395 2320 c-5 -8 11 -29 44 -58 49 -43 51 -47 51 -96 l0 -50 -44 43
c-31 31 -46 39 -51 30 -6 -8 10 -28 44 -58 49 -44 51 -48 51 -96 l0 -49 -44
43 c-29 28 -46 39 -51 31 -4 -7 13 -31 44 -59 l51 -48 0 -618 0 -619 -38 37
c-35 34 -62 47 -62 30 0 -9 100 -103 110 -103 9 0 110 95 110 103 0 17 -27 4
-62 -30 l-38 -37 0 621 0 620 50 47 c28 26 48 52 44 58 -4 5 -25 -8 -50 -33
l-44 -43 0 51 c0 48 3 53 50 97 28 26 48 52 44 58 -4 5 -25 -8 -50 -33 l-44
-43 0 50 c0 46 3 53 50 99 27 26 47 53 43 58 -3 5 -25 -10 -49 -34 l-44 -43 0
36 c0 20 -4 40 -10 43 -6 4 -10 -11 -10 -36 l0 -43 -44 43 c-30 30 -46 39 -51
31z"/>
</g>
</svg>
